<?xml version="1.0" encoding="UTF-8" standalone="no"?>
<!-- Created with Inkscape (http://www.inkscape.org/) -->

<svg
   width="290"
   height="145"
   viewBox="0 0 76.729168 38.364601"
   version="1.1"
   id="svg1"
   inkscape:version="1.3.2 (091e20ef0f, 2023-11-25)"
   sodipodi:docname="logo2.svg"
   inkscape:export-filename="logo3.png"
   inkscape:export-xdpi="96"
   inkscape:export-ydpi="96"
   xmlns:inkscape="http://www.inkscape.org/namespaces/inkscape"
   xmlns:sodipodi="http://sodipodi.sourceforge.net/DTD/sodipodi-0.dtd"
   xmlns="http://www.w3.org/2000/svg"
   xmlns:svg="http://www.w3.org/2000/svg">
  <sodipodi:namedview
     id="namedview1"
     pagecolor="#ffffff"
     bordercolor="#000000"
     borderopacity="0.25"
     inkscape:showpageshadow="2"
     inkscape:pageopacity="0.0"
     inkscape:pagecheckerboard="0"
     inkscape:deskcolor="#d1d1d1"
     inkscape:document-units="mm"
     inkscape:zoom="0.71713664"
     inkscape:cx="397.4138"
     inkscape:cy="307.47279"
     inkscape:window-width="1856"
     inkscape:window-height="1011"
     inkscape:window-x="0"
     inkscape:window-y="0"
     inkscape:window-maximized="1"
     inkscape:current-layer="layer1" />
  <defs
     id="defs1" />
  <g
     inkscape:label="Capa 1"
     inkscape:groupmode="layer"
     id="layer1">
    <path
       d="m 49.386556,10.337575 c -0.10602,0 -0.214821,0.01524 -0.323622,0.04514 l -1.229719,0.338746 -1.276746,-3.1105722 c -0.361824,-0.8811843 -1.431118,-1.5982 -2.38363,-1.5982 H 32.222635 c -0.952631,0 -2.021801,0.7170157 -2.383511,1.5982 L 28.56395,10.717101 27.349467,10.382593 c -0.108684,-0.02989 -0.217483,-0.04514 -0.323506,-0.04514 -0.58125,0 -1.003045,0.44403 -1.003045,1.055627 v 0.724871 c 0,0.713993 0.58101,1.295001 1.294997,1.295001 h 0.139147 l -0.206118,0.50206 C 26.91486,14.73346 26.64128,16.11961 26.64128,17.00478 v 6.17941 c 0,0.713984 0.581006,1.294993 1.294997,1.294993 h 1.691284 c 0.713991,0 1.294997,-0.581009 1.294997,-1.294993 v -1.54307 h 14.550231 v 1.543075 c 0,0.713984 0.581017,1.294993 1.295001,1.294993 h 1.691041 c 0.713992,0 1.295001,-0.581009 1.295001,-1.294993 v -6.179293 c 0,-0.885053 -0.273581,-2.271203 -0.609655,-3.089759 l -0.20613,-0.502069 h 0.156439 c 0.713985,0 1.294993,-0.581008 1.294993,-1.295001 v -0.724862 c 1.26e-4,-0.611598 -0.421789,-1.055636 -1.002923,-1.055636 z M 29.492282,12.709724 31.4239,8.0048296 c 0.216397,-0.5270894 0.859546,-0.958441 1.429308,-0.958441 h 10.68905 c 0.56977,0 1.212921,0.431226 1.429317,0.958441 l 1.931611,4.7048944 c 0.216279,0.52709 -0.07277,0.958433 -0.642539,0.958433 H 30.134944 c -0.569885,-1.17e-4 -0.858939,-0.431343 -0.642662,-0.958433 z m 4.311864,5.951157 c 0,0.284944 -0.233202,0.517904 -0.517903,0.517904 h -3.669322 c -0.28494,0 -0.518023,-0.233077 -0.518023,-0.517904 V 16.89997 c 0,-0.284818 0.233083,-0.517903 0.518023,-0.517903 h 3.669322 c 0.284701,0 0.517903,0.233085 0.517903,0.517903 z m 13.457607,0 c 0,0.284944 -0.233194,0.517904 -0.517904,0.517904 H 43.07453 c -0.284701,0 -0.517895,-0.233077 -0.517895,-0.517904 V 16.89997 c 0,-0.284818 0.233194,-0.517903 0.517895,-0.517903 h 3.669319 c 0.28471,0 0.517904,0.233085 0.517904,0.517903 z"
       id="path1"
       style="fill:#ffffff;fill-opacity:1;stroke-width:0.120893" />
    <g
       id="g3"
       transform="matrix(0.12089228,0,0,0.12089228,26.341949,-3.796429)"
       style="fill:#ffffff;fill-opacity:1">
      <path
         d="M 259.125,37.486 H 208.39 c -7.388,0 -13.398,6.011 -13.398,13.398 v 50.736 c 0,7.388 6.011,13.399 13.398,13.399 h 20.367 v 113.872 c 0,2.762 2.238,5 5,5 2.762,0 5,-2.238 5,-5 V 115.02 h 20.368 c 7.388,0 13.398,-6.011 13.398,-13.399 V 50.885 c 0,-7.388 -6.01,-13.399 -13.398,-13.399 z m -11.491,42.067 c -2.918,2.627 -7.216,3.959 -12.774,3.959 h -7.347 c -0.882,0 -1.6,0.719 -1.6,1.601 v 12.389 c 0,1.346 -1.095,2.44 -2.441,2.44 h -5.564 c -1.347,0 -2.441,-1.095 -2.441,-2.44 V 55.007 c 0,-1.347 1.095,-2.442 2.441,-2.442 h 14.016 c 9.285,0 12.751,1.399 15.599,3.816 3.004,2.549 4.526,6.453 4.526,11.606 -0.001,5.035 -1.485,8.925 -4.415,11.566 z"
         id="path2"
         style="fill:#ffffff;fill-opacity:1" />
      <path
         d="m 239.681,62.825 c -1.356,-1.024 -3.755,-1.544 -7.129,-1.544 h -5.039 c -0.882,0 -1.6,0.718 -1.6,1.599 v 10.182 c 0,0.881 0.718,1.599 1.6,1.599 h 3.019 c 1.109,0 2.901,-0.082 3.994,-0.183 1.061,-0.097 4.056,-0.531 5.155,-1.361 1.319,-0.998 1.988,-2.724 1.988,-5.129 0,-2.428 -0.669,-4.165 -1.988,-5.163 z"
         id="path3"
         style="fill:#ffffff;fill-opacity:1" />
    </g>
    <text
       xml:space="preserve"
       style="font-size:10.6347px;fill:#ffffff;fill-opacity:1;stroke-width:0.221557"
       x="0.43418714"
       y="35.091427"
       id="text1"><tspan
         sodipodi:role="line"
         id="tspan1"
         style="font-style:normal;font-variant:normal;font-weight:bold;font-stretch:normal;font-size:10.6347px;font-family:Arial;-inkscape-font-specification:'Arial Bold';fill:#ffffff;fill-opacity:1;stroke-width:0.221557"
         x="0.43418714"
         y="35.091427"><tspan
   style="font-style:normal;font-variant:normal;font-weight:normal;font-stretch:normal;font-family:Arial;-inkscape-font-specification:Arial;fill:#ffffff;fill-opacity:1;stroke-width:0.221557"
   id="tspan6">Gestión</tspan>Parking</tspan></text>
  </g>
</svg>
